<svg width="59" height="58" viewBox="0 0 59 58" fill="none" xmlns="http://www.w3.org/2000/svg">
<path d="M25.5909 57.9772C20.894 57.9772 16.8334 57.3333 13.4091 56.0454C10 54.7727 7.2576 52.8939 5.18184 50.409C3.10608 47.9393 1.71972 44.909 1.02275 41.3181C0.340931 37.7272 0.371234 33.6287 1.11366 29.0227C1.85608 24.5378 3.17426 20.5075 5.0682 16.9318C6.96214 13.356 9.36366 10.3105 12.2727 7.79539C15.1818 5.26508 18.5379 3.33326 22.3409 1.99993C26.144 0.666598 30.3182 -6.86646e-05 34.8637 -6.86646e-05C39.2121 -6.86646e-05 42.9318 0.68175 46.0228 2.04539C49.1137 3.40902 51.5909 5.28023 53.4546 7.65902C55.3182 10.0378 56.5758 12.7651 57.2273 15.8408C57.8788 18.9166 57.9243 22.1666 57.3637 25.5908C56.9697 27.9848 56.4318 30.3257 55.75 32.6136C55.0682 34.8863 54.1667 36.9469 53.0455 38.7954C51.9243 40.6287 50.5152 42.0984 48.8182 43.2045C47.1212 44.2954 45.0531 44.8636 42.6137 44.909C41.3106 44.9545 40.0758 44.803 38.9091 44.4545C37.7576 44.106 36.8182 43.5454 36.0909 42.7727C35.3788 41.9848 35.0303 40.9848 35.0455 39.7727H34.7728C34.2879 40.6666 33.5531 41.4999 32.5682 42.2727C31.5834 43.0302 30.394 43.6363 29 44.0908C27.6212 44.5302 26.0758 44.7121 24.3637 44.6363C22.4697 44.5605 20.8258 44.1287 19.4318 43.3408C18.0379 42.553 16.9091 41.4621 16.0455 40.0681C15.197 38.6742 14.644 37.0227 14.3864 35.1136C14.144 33.2045 14.2121 31.0833 14.5909 28.7499C14.9697 26.5075 15.6288 24.4999 16.5682 22.7272C17.5076 20.9393 18.6515 19.4014 20 18.1136C21.3485 16.8105 22.8106 15.7802 24.3864 15.0227C25.9773 14.2651 27.6137 13.7878 29.2955 13.5908C30.9015 13.409 32.3485 13.4545 33.6364 13.7272C34.9394 13.9999 35.9849 14.4166 36.7728 14.9772C37.5758 15.5378 38.0303 16.1514 38.1364 16.8181H38.4318L38.8637 14.2727H44.4546L40.9318 35.3636C40.7652 36.5605 40.9243 37.5757 41.4091 38.409C41.9091 39.2424 42.7424 39.659 43.9091 39.659C45.2879 39.659 46.447 39.1514 47.3864 38.1363C48.3409 37.1211 49.1515 35.5605 49.8182 33.4545C50.5 31.3484 51.1137 28.6514 51.6591 25.3636C52.0531 23.0605 52.1061 20.8939 51.8182 18.8636C51.5303 16.8181 50.9318 14.9696 50.0228 13.3181C49.1137 11.6514 47.894 10.2196 46.3637 9.02266C44.8334 7.82569 43.0152 6.90145 40.9091 6.24993C38.8031 5.59842 36.4167 5.27266 33.75 5.27266C30.1288 5.27266 26.8106 5.83327 23.7955 6.95448C20.7955 8.06054 18.1591 9.65902 15.8864 11.7499C13.6137 13.8408 11.7424 16.3484 10.2727 19.2727C8.80305 22.1818 7.77275 25.4469 7.18184 29.0681C6.56063 32.8408 6.5076 36.1893 7.02275 39.1136C7.55305 42.0227 8.65154 44.4772 10.3182 46.4772C11.9849 48.4772 14.1894 49.9924 16.9318 51.0227C19.6894 52.0681 22.9773 52.5908 26.7955 52.5908C28.4924 52.5908 30.1743 52.4393 31.8409 52.1363C33.5227 51.8484 35.0303 51.5151 36.3637 51.1363C37.7121 50.7727 38.7197 50.4772 39.3864 50.2499L40.2046 55.2272C39.1743 55.6666 37.8485 56.0984 36.2273 56.5227C34.6061 56.9469 32.8637 57.2954 31 57.5681C29.1515 57.8408 27.3485 57.9772 25.5909 57.9772ZM26.6364 39.0681C28.6061 39.0681 30.25 38.6742 31.5682 37.8863C32.9015 37.0984 33.9621 35.9242 34.75 34.3636C35.5531 32.7878 36.1515 30.8181 36.5455 28.4545C36.9243 26.1514 36.9394 24.3181 36.5909 22.9545C36.2424 21.5757 35.5228 20.5908 34.4318 19.9999C33.3561 19.3939 31.8864 19.0908 30.0228 19.0908C28.3106 19.0908 26.7879 19.5075 25.4546 20.3408C24.1212 21.1742 23.0152 22.303 22.1364 23.7272C21.2576 25.1514 20.6743 26.7348 20.3864 28.4772C20.0985 30.3105 20.0758 32.0378 20.3182 33.659C20.5606 35.2651 21.1818 36.5681 22.1818 37.5681C23.1818 38.5681 24.6667 39.0681 26.6364 39.0681Z" fill="white"/>
</svg>
