<svg width="100" height="100" viewBox="0 0 100 100" fill="none" xmlns="http://www.w3.org/2000/svg">
<rect width="100" height="100" rx="26" fill="url(#paint0_linear_85_4)"/>
<path d="M47.6136 77.6591C42.9167 77.6591 38.8561 77.0152 35.4318 75.7273C32.0227 74.4545 29.2803 72.5758 27.2045 70.0909C25.1288 67.6212 23.7424 64.5909 23.0455 61C22.3636 57.4091 22.3939 53.3106 23.1364 48.7045C23.8788 44.2197 25.197 40.1894 27.0909 36.6136C28.9848 33.0379 31.3864 29.9924 34.2955 27.4773C37.2045 24.947 40.5606 23.0151 44.3636 21.6818C48.1667 20.3485 52.3409 19.6818 56.8864 19.6818C61.2348 19.6818 64.9545 20.3636 68.0455 21.7273C71.1364 23.0909 73.6136 24.9621 75.4773 27.3409C77.3409 29.7197 78.5985 32.447 79.25 35.5227C79.9015 38.5985 79.947 41.8485 79.3864 45.2727C78.9924 47.6667 78.4545 50.0076 77.7727 52.2955C77.0909 54.5682 76.1894 56.6288 75.0682 58.4773C73.947 60.3106 72.5379 61.7803 70.8409 62.8864C69.1439 63.9773 67.0758 64.5455 64.6364 64.5909C63.3333 64.6364 62.0985 64.4848 60.9318 64.1364C59.7803 63.7879 58.8409 63.2273 58.1136 62.4545C57.4015 61.6667 57.053 60.6667 57.0682 59.4545H56.7955C56.3106 60.3485 55.5758 61.1818 54.5909 61.9545C53.6061 62.7121 52.4167 63.3182 51.0227 63.7727C49.6439 64.2121 48.0985 64.3939 46.3864 64.3182C44.4924 64.2424 42.8485 63.8106 41.4545 63.0227C40.0606 62.2348 38.9318 61.1439 38.0682 59.75C37.2197 58.3561 36.6667 56.7045 36.4091 54.7955C36.1667 52.8864 36.2348 50.7652 36.6136 48.4318C36.9924 46.1894 37.6515 44.1818 38.5909 42.4091C39.5303 40.6212 40.6742 39.0833 42.0227 37.7955C43.3712 36.4924 44.8333 35.4621 46.4091 34.7045C48 33.947 49.6364 33.4697 51.3182 33.2727C52.9242 33.0909 54.3712 33.1364 55.6591 33.4091C56.9621 33.6818 58.0076 34.0985 58.7955 34.6591C59.5985 35.2197 60.053 35.8333 60.1591 36.5H60.4545L60.8864 33.9545H66.4773L62.9545 55.0455C62.7879 56.2424 62.947 57.2576 63.4318 58.0909C63.9318 58.9242 64.7652 59.3409 65.9318 59.3409C67.3106 59.3409 68.4697 58.8333 69.4091 57.8182C70.3636 56.803 71.1742 55.2424 71.8409 53.1364C72.5227 51.0303 73.1364 48.3333 73.6818 45.0455C74.0758 42.7424 74.1288 40.5758 73.8409 38.5455C73.553 36.5 72.9545 34.6515 72.0455 33C71.1364 31.3333 69.9167 29.9015 68.3864 28.7045C66.8561 27.5076 65.0379 26.5833 62.9318 25.9318C60.8258 25.2803 58.4394 24.9545 55.7727 24.9545C52.1515 24.9545 48.8333 25.5152 45.8182 26.6364C42.8182 27.7424 40.1818 29.3409 37.9091 31.4318C35.6364 33.5227 33.7652 36.0303 32.2955 38.9545C30.8258 41.8636 29.7955 45.1288 29.2045 48.75C28.5833 52.5227 28.5303 55.8712 29.0455 58.7955C29.5758 61.7045 30.6742 64.1591 32.3409 66.1591C34.0076 68.1591 36.2121 69.6742 38.9545 70.7045C41.7121 71.75 45 72.2727 48.8182 72.2727C50.5152 72.2727 52.197 72.1212 53.8636 71.8182C55.5455 71.5303 57.053 71.197 58.3864 70.8182C59.7348 70.4545 60.7424 70.1591 61.4091 69.9318L62.2273 74.9091C61.197 75.3485 59.8712 75.7803 58.25 76.2045C56.6288 76.6288 54.8864 76.9773 53.0227 77.25C51.1742 77.5227 49.3712 77.6591 47.6136 77.6591ZM48.6591 58.75C50.6288 58.75 52.2727 58.3561 53.5909 57.5682C54.9242 56.7803 55.9849 55.6061 56.7727 54.0455C57.5758 52.4697 58.1742 50.5 58.5682 48.1364C58.947 45.8333 58.9621 44 58.6136 42.6364C58.2652 41.2576 57.5455 40.2727 56.4545 39.6818C55.3788 39.0758 53.9091 38.7727 52.0455 38.7727C50.3333 38.7727 48.8106 39.1894 47.4773 40.0227C46.1439 40.8561 45.0379 41.9848 44.1591 43.4091C43.2803 44.8333 42.697 46.4167 42.4091 48.1591C42.1212 49.9924 42.0985 51.7197 42.3409 53.3409C42.5833 54.947 43.2045 56.25 44.2045 57.25C45.2045 58.25 46.6894 58.75 48.6591 58.75Z" fill="white"/>
<defs>
<linearGradient id="paint0_linear_85_4" x1="50" y1="0" x2="50" y2="100" gradientUnits="userSpaceOnUse">
<stop stop-color="#F06ADE"/>
<stop offset="1" stop-color="#03D4DF"/>
</linearGradient>
</defs>
</svg>
