<svg width="100" height="100" viewBox="0 0 100 100" fill="none" xmlns="http://www.w3.org/2000/svg">
<rect width="100" height="100" rx="26" fill="url(#paint0_linear_85_19)"/>
<path d="M37.0737 50.0426C37.0067 43.7332 38.2107 37.5039 40.6855 31.3548C43.1603 25.2056 46.9123 19.7247 51.9414 14.912C52.5762 14.2636 53.3213 13.9348 54.1769 13.9257C55.0324 13.9166 55.7843 14.2295 56.4328 14.8643L63.7294 22.1665C64.3238 22.7484 64.6519 23.4267 64.7136 24.2015C64.7753 24.9762 64.5689 25.687 64.0945 26.3337L57.1353 35.7122C56.819 36.1434 56.4481 36.4682 56.0226 36.6866C55.5971 36.905 55.1171 37.0171 54.5824 37.0227L45.4391 37.1197C44.8191 39.1584 44.3332 41.2491 43.9816 43.3918C43.63 45.5346 43.4662 47.7288 43.49 49.9745C43.5138 52.2202 43.7242 54.4104 44.1212 56.5452C44.5182 58.68 45.0483 60.7599 45.7115 62.785L54.8547 62.6879C55.3894 62.6823 55.8717 62.7841 56.3018 62.9934C56.7318 63.2028 57.1095 63.5196 57.4348 63.944L64.5915 73.1727C65.0795 73.8092 65.3009 74.5154 65.2557 75.2913C65.2104 76.0672 64.8969 76.7523 64.3149 77.3467L57.1749 84.8021C56.5401 85.4505 55.7949 85.7793 54.9394 85.7883C54.0839 85.7974 53.3319 85.4846 52.6835 84.8497C47.554 80.1983 43.6867 74.8116 41.0817 68.6896C38.4766 62.5676 37.1406 56.3519 37.0737 50.0426Z" fill="white"/>
<defs>
<linearGradient id="paint0_linear_85_19" x1="6" y1="6" x2="94.5" y2="88.5" gradientUnits="userSpaceOnUse">
<stop offset="0.259615" stop-color="#8DFEC7"/>
<stop offset="1" stop-color="#0505AD"/>
</linearGradient>
</defs>
</svg>
